<svg data-v-423bf9ae="" xmlns="http://www.w3.org/2000/svg" viewBox="0 0 704 91" class="iconLeft"><!----><!----><!----><g data-v-423bf9ae="" id="3012ebd3-9a4b-4e78-945d-8604b15a255d" fill="#CD8B7C" transform="matrix(5.676442414270142,0,0,5.676442414270142,183.18248494066387,0.8656571422396766)"><path d="M3.77 7.15L4.49 7.41Q5.25 7.67 5.75 7.99Q6.26 8.30 6.56 8.66Q6.86 9.02 6.99 9.40Q7.13 9.79 7.13 10.19L7.13 10.19Q7.13 10.81 6.86 11.33Q6.59 11.84 6.11 12.24Q5.63 12.63 4.95 12.85Q4.27 13.06 3.43 13.06L3.43 13.06Q2.63 13.06 1.85 12.87Q1.06 12.68 0.49 12.33L0.49 12.33L0.57 10.28L1.74 10.28L2.02 11.96Q2.34 12.11 2.67 12.20Q3.01 12.29 3.42 12.29L3.42 12.29Q4.30 12.29 4.79 11.89Q5.28 11.48 5.28 10.81L5.28 10.81Q5.28 10.28 4.94 9.97Q4.59 9.66 3.84 9.38L3.84 9.38L3.15 9.13Q1.90 8.68 1.21 7.95Q0.52 7.21 0.52 6.16L0.52 6.16Q0.52 5.57 0.75 5.08Q0.98 4.59 1.42 4.23Q1.86 3.88 2.48 3.68Q3.11 3.47 3.91 3.47L3.91 3.47Q4.68 3.47 5.36 3.66Q6.03 3.85 6.54 4.20L6.54 4.20L6.44 6.12L5.29 6.12L5.01 4.47Q4.73 4.35 4.47 4.30Q4.20 4.24 3.92 4.24L3.92 4.24Q3.22 4.24 2.74 4.61Q2.27 4.97 2.27 5.64L2.27 5.64Q2.27 6.23 2.66 6.57Q3.05 6.90 3.77 7.15L3.77 7.15ZM14.90 12.07L15.69 12.24L15.69 12.85L12.11 12.85L12.11 12.24L12.96 12.07Q12.98 11.55 12.98 10.96Q12.98 10.37 12.98 9.91L12.98 9.91L12.98 8.57Q12.98 7.77 12.81 7.40Q12.64 7.03 12.15 7.03L12.15 7.03Q11.75 7.03 11.36 7.25Q10.98 7.46 10.57 7.85L10.57 7.85L10.57 9.91Q10.57 10.36 10.57 10.96Q10.57 11.55 10.58 12.07L10.58 12.07L11.38 12.24L11.38 12.85L7.80 12.85L7.80 12.24L8.65 12.07Q8.67 11.54 8.67 10.95Q8.67 10.36 8.67 9.91L8.67 9.91L8.67 4.10L7.62 3.96L7.62 3.40L10.39 2.77L10.58 2.88L10.53 4.87L10.53 7.13Q10.82 6.79 11.08 6.56Q11.34 6.33 11.61 6.17Q11.87 6.02 12.17 5.95Q12.46 5.88 12.82 5.88L12.82 5.88Q13.82 5.88 14.35 6.48Q14.88 7.07 14.88 8.34L14.88 8.34L14.88 9.91Q14.88 10.37 14.88 10.97Q14.88 11.56 14.90 12.07L14.90 12.07ZM20.30 11.61L20.30 9.24Q20.03 9.31 19.80 9.39Q19.57 9.46 19.40 9.53L19.40 9.53Q18.79 9.77 18.55 10.14Q18.31 10.50 18.31 10.95L18.31 10.95Q18.31 11.23 18.39 11.40Q18.47 11.56 18.58 11.68L18.58 11.68Q18.87 11.97 19.36 11.97L19.36 11.97Q19.59 11.97 19.80 11.89Q20.01 11.82 20.30 11.61L20.30 11.61ZM23.04 11.70L23.41 11.97Q23.13 12.54 22.77 12.77Q22.41 12.99 21.88 12.99L21.88 12.99Q21.31 12.99 20.93 12.77Q20.55 12.54 20.40 12.18L20.40 12.18Q19.92 12.61 19.48 12.84Q19.04 13.06 18.38 13.06L18.38 13.06Q17.54 13.06 17.02 12.63Q16.49 12.21 16.49 11.38L16.49 11.38Q16.49 11.06 16.60 10.75Q16.70 10.43 16.99 10.13Q17.28 9.83 17.78 9.55Q18.28 9.27 19.08 9.00L19.08 9.00Q19.32 8.92 19.64 8.83Q19.96 8.74 20.30 8.64L20.30 8.64L20.30 8.22Q20.30 7.34 20.03 6.96Q19.77 6.58 19.10 6.58L19.10 6.58Q18.98 6.58 18.88 6.59Q18.77 6.59 18.66 6.61L18.66 6.61L18.55 7.42Q18.48 7.97 18.21 8.23Q17.95 8.50 17.58 8.50L17.58 8.50Q17.26 8.50 17.03 8.30Q16.80 8.11 16.73 7.78L16.73 7.78Q16.83 6.96 17.61 6.42Q18.40 5.88 19.74 5.88L19.74 5.88Q20.40 5.88 20.87 6.03Q21.34 6.17 21.63 6.50Q21.92 6.83 22.06 7.37Q22.20 7.91 22.20 8.69L22.20 8.69L22.20 11.58Q22.20 11.80 22.29 11.94Q22.37 12.08 22.55 12.08L22.55 12.08Q22.69 12.08 22.78 12.00Q22.86 11.91 22.97 11.79L22.97 11.79L23.04 11.70ZM30.90 12.07L31.70 12.24L31.70 12.85L28.11 12.85L28.11 12.24L28.97 12.07Q28.98 11.55 28.98 10.96Q28.98 10.37 28.98 9.91L28.98 9.91L28.98 8.57Q28.98 7.77 28.81 7.40Q28.64 7.03 28.15 7.03L28.15 7.03Q27.75 7.03 27.36 7.25Q26.98 7.46 26.57 7.85L26.57 7.85L26.57 9.91Q26.57 10.36 26.57 10.96Q26.57 11.55 26.59 12.07L26.59 12.07L27.38 12.24L27.38 12.85L23.80 12.85L23.80 12.24L24.65 12.07Q24.67 11.54 24.67 10.95Q24.67 10.36 24.67 9.91L24.67 9.91L24.67 4.10L23.62 3.96L23.62 3.40L26.39 2.77L26.59 2.88L26.53 4.87L26.53 7.13Q26.82 6.79 27.08 6.56Q27.34 6.33 27.61 6.17Q27.87 6.02 28.17 5.95Q28.46 5.88 28.83 5.88L28.83 5.88Q29.82 5.88 30.35 6.48Q30.88 7.07 30.88 8.34L30.88 8.34L30.88 9.91Q30.88 10.37 30.88 10.97Q30.88 11.56 30.90 12.07L30.90 12.07ZM35.17 6.02L35.31 7.39Q35.70 6.68 36.20 6.28Q36.71 5.88 37.20 5.88L37.20 5.88Q37.49 5.88 37.81 6.06Q38.12 6.24 38.23 6.75L38.23 6.75Q38.23 7.21 37.97 7.50Q37.70 7.78 37.25 7.78L37.25 7.78Q36.71 7.78 36.18 7.21L36.18 7.21L36.15 7.18Q35.90 7.42 35.68 7.72Q35.46 8.02 35.31 8.41L35.31 8.41L35.31 9.91Q35.31 10.36 35.31 10.93Q35.31 11.51 35.32 12.03L35.32 12.03L36.39 12.24L36.39 12.85L32.54 12.85L32.54 12.24L33.39 12.07Q33.40 11.55 33.40 10.96Q33.40 10.36 33.40 9.91L33.40 9.91L33.40 9.10Q33.40 8.81 33.40 8.60Q33.40 8.39 33.40 8.20Q33.39 8.01 33.38 7.83Q33.38 7.66 33.36 7.45L33.36 7.45L32.42 7.32L32.42 6.79L34.96 5.88L35.17 6.02ZM40.73 4.72L40.73 4.72Q40.25 4.72 39.91 4.40Q39.56 4.09 39.56 3.60L39.56 3.60Q39.56 3.11 39.91 2.80Q40.25 2.49 40.73 2.49L40.73 2.49Q41.22 2.49 41.55 2.80Q41.89 3.11 41.89 3.60L41.89 3.60Q41.89 4.09 41.55 4.40Q41.22 4.72 40.73 4.72ZM41.72 12.07L42.52 12.24L42.52 12.85L38.93 12.85L38.93 12.24L39.79 12.07Q39.80 11.54 39.80 10.95Q39.80 10.36 39.80 9.91L39.80 9.91L39.80 9.21Q39.80 8.64 39.79 8.25Q39.77 7.87 39.76 7.45L39.76 7.45L38.82 7.32L38.82 6.79L41.54 5.88L41.75 6.02L41.71 8.02L41.71 9.91Q41.71 10.36 41.71 10.96Q41.71 11.55 41.72 12.07L41.72 12.07ZM47.17 11.61L47.17 9.24Q46.90 9.31 46.67 9.39Q46.44 9.46 46.27 9.53L46.27 9.53Q45.65 9.77 45.42 10.14Q45.18 10.50 45.18 10.95L45.18 10.95Q45.18 11.23 45.26 11.40Q45.33 11.56 45.44 11.68L45.44 11.68Q45.74 11.97 46.23 11.97L46.23 11.97Q46.45 11.97 46.66 11.89Q46.87 11.82 47.17 11.61L47.17 11.61ZM49.91 11.70L50.27 11.97Q49.99 12.54 49.64 12.77Q49.28 12.99 48.75 12.99L48.75 12.99Q48.17 12.99 47.80 12.77Q47.42 12.54 47.26 12.18L47.26 12.18Q46.79 12.61 46.35 12.84Q45.91 13.06 45.25 13.06L45.25 13.06Q44.41 13.06 43.88 12.63Q43.36 12.21 43.36 11.38L43.36 11.38Q43.36 11.06 43.46 10.75Q43.57 10.43 43.86 10.13Q44.14 9.83 44.65 9.55Q45.15 9.27 45.95 9.00L45.95 9.00Q46.19 8.92 46.51 8.83Q46.83 8.74 47.17 8.64L47.17 8.64L47.17 8.22Q47.17 7.34 46.90 6.96Q46.63 6.58 45.96 6.58L45.96 6.58Q45.85 6.58 45.75 6.59Q45.64 6.59 45.53 6.61L45.53 6.61L45.42 7.42Q45.35 7.97 45.08 8.23Q44.81 8.50 44.45 8.50L44.45 8.50Q44.13 8.50 43.90 8.30Q43.67 8.11 43.60 7.78L43.60 7.78Q43.69 6.96 44.48 6.42Q45.26 5.88 46.61 5.88L46.61 5.88Q47.26 5.88 47.73 6.03Q48.20 6.17 48.50 6.50Q48.79 6.83 48.93 7.37Q49.07 7.91 49.07 8.69L49.07 8.69L49.07 11.58Q49.07 11.80 49.15 11.94Q49.24 12.08 49.42 12.08L49.42 12.08Q49.56 12.08 49.64 12.00Q49.73 11.91 49.84 11.79L49.84 11.79L49.91 11.70ZM53.37 6.02L53.51 7.39Q53.90 6.68 54.40 6.28Q54.91 5.88 55.40 5.88L55.40 5.88Q55.69 5.88 56.01 6.06Q56.32 6.24 56.43 6.75L56.43 6.75Q56.43 7.21 56.17 7.50Q55.90 7.78 55.45 7.78L55.45 7.78Q54.91 7.78 54.38 7.21L54.38 7.21L54.35 7.18Q54.10 7.42 53.88 7.72Q53.66 8.02 53.51 8.41L53.51 8.41L53.51 9.91Q53.51 10.36 53.51 10.93Q53.51 11.51 53.52 12.03L53.52 12.03L54.59 12.24L54.59 12.85L50.74 12.85L50.74 12.24L51.59 12.07Q51.60 11.55 51.60 10.96Q51.60 10.36 51.60 9.91L51.60 9.91L51.60 9.10Q51.60 8.81 51.60 8.60Q51.60 8.39 51.60 8.20Q51.59 8.01 51.58 7.83Q51.58 7.66 51.56 7.45L51.56 7.45L50.62 7.32L50.62 6.79L53.16 5.88L53.37 6.02ZM63.31 7.97L63.92 7.97Q64.46 7.97 64.83 7.82Q65.20 7.67 65.43 7.43Q65.66 7.18 65.77 6.85Q65.87 6.51 65.87 6.13L65.87 6.13Q65.87 5.29 65.41 4.87Q64.95 4.45 63.92 4.45L63.92 4.45L63.34 4.45Q63.31 5.32 63.31 6.20Q63.31 7.07 63.31 7.97L63.31 7.97ZM67.82 12.03L68.98 12.15L68.98 12.85Q68.56 12.94 68.24 12.96Q67.91 12.99 67.62 12.99L67.62 12.99Q67.21 12.99 66.89 12.94Q66.56 12.89 66.30 12.77Q66.05 12.64 65.88 12.41Q65.72 12.18 65.65 11.82L65.65 11.82L65.28 9.95Q65.14 9.27 64.79 9.00Q64.44 8.74 63.74 8.74L63.74 8.74L63.31 8.74Q63.31 9.56 63.31 10.38Q63.31 11.20 63.34 12.03L63.34 12.03L64.50 12.15L64.50 12.85L60.13 12.85L60.13 12.15L61.26 12.03Q61.29 11.16 61.29 10.28Q61.29 9.41 61.29 8.51L61.29 8.51L61.29 8.02Q61.29 7.14 61.29 6.27Q61.29 5.39 61.26 4.51L61.26 4.51L60.13 4.38L60.13 3.68L64.50 3.68Q66.08 3.68 66.96 4.30Q67.83 4.91 67.83 5.99L67.83 5.99Q67.83 6.33 67.73 6.69Q67.62 7.04 67.38 7.37Q67.13 7.70 66.73 7.96Q66.33 8.22 65.74 8.37L65.74 8.37Q66.42 8.57 66.85 9.02Q67.28 9.48 67.44 10.23L67.44 10.23L67.82 12.03ZM71.40 4.72L71.40 4.72Q70.92 4.72 70.58 4.40Q70.24 4.09 70.24 3.60L70.24 3.60Q70.24 3.11 70.58 2.80Q70.92 2.49 71.40 2.49L71.40 2.49Q71.89 2.49 72.23 2.80Q72.56 3.11 72.56 3.60L72.56 3.60Q72.56 4.09 72.23 4.40Q71.89 4.72 71.40 4.72ZM72.39 12.07L73.19 12.24L73.19 12.85L69.61 12.85L69.61 12.24L70.46 12.07Q70.48 11.54 70.48 10.95Q70.48 10.36 70.48 9.91L70.48 9.91L70.48 9.21Q70.48 8.64 70.46 8.25Q70.45 7.87 70.43 7.45L70.43 7.45L69.50 7.32L69.50 6.79L72.21 5.88L72.42 6.02L72.38 8.02L72.38 9.91Q72.38 10.36 72.38 10.96Q72.38 11.55 72.39 12.07L72.39 12.07ZM78.74 10.53L79.73 10.53L79.59 12.85L73.75 12.85L73.75 12.29L77.48 6.76L75.21 6.76L74.83 8.32L73.84 8.26L73.95 6.13L79.63 6.13L79.63 6.69L76.01 12.22L78.32 12.22L78.74 10.53ZM87.43 6.13L87.43 6.75L86.55 6.90L84.06 12.99L83.26 12.99L80.77 6.90L80.01 6.75L80.01 6.13L83.83 6.13L83.83 6.75L82.84 6.94L84.24 10.81L85.72 6.90L84.85 6.75L84.85 6.13L87.43 6.13ZM89.89 4.72L89.89 4.72Q89.42 4.72 89.08 4.40Q88.73 4.09 88.73 3.60L88.73 3.60Q88.73 3.11 89.08 2.80Q89.42 2.49 89.89 2.49L89.89 2.49Q90.38 2.49 90.72 2.80Q91.06 3.11 91.06 3.60L91.06 3.60Q91.06 4.09 90.72 4.40Q90.38 4.72 89.89 4.72ZM90.89 12.07L91.69 12.24L91.69 12.85L88.10 12.85L88.10 12.24L88.96 12.07Q88.97 11.54 88.97 10.95Q88.97 10.36 88.97 9.91L88.97 9.91L88.97 9.21Q88.97 8.64 88.96 8.25Q88.94 7.87 88.93 7.45L88.93 7.45L87.99 7.32L87.99 6.79L90.71 5.88L90.92 6.02L90.87 8.02L90.87 9.91Q90.87 10.36 90.87 10.96Q90.87 11.55 90.89 12.07L90.89 12.07Z"></path></g><!----><g data-v-423bf9ae="" id="d3869a4a-69da-46e4-aac7-2d8bfb0210ea" transform="matrix(2.2860044125298797,0,0,2.2860044125298797,-29.957225151274997,-66.93713016963146)" stroke="none" fill="#CD8B7C"><path d="M39.6 68.87h3.22L59.4 29.5h-3.22L39.6 68.87zM66 29.5v4.64l15.13 15.03L66 64.21v4.63l19.8-19.67L66 29.5zM33 68.84v-4.63L17.87 49.17 33 34.14V29.5L13.2 49.17 33 68.84z"></path></g><!----></svg>